<svg width="24" height="24" viewBox="0 0 24 24" fill="none" xmlns="http://www.w3.org/2000/svg">
<path d="M19.5616 15.3033L16.0548 13.8004C15.9609 13.7691 15.8356 13.7378 15.7417 13.7378C15.5538 13.7378 15.3033 13.863 15.1781 14.0196L13.6125 15.9296C11.546 14.9276 9.0411 12.454 8.07045 10.3875L9.98043 8.82192C10.137 8.69667 10.2622 8.44618 10.2622 8.22701C10.2622 8.16438 10.2309 8.03914 10.1996 7.94521L8.69667 4.43836C8.57143 4.18787 8.25832 4 7.97652 4C7.94521 4 7.88258 4 7.81996 4L4.5636 4.75147C4.25049 4.81409 4 5.15851 4 5.47162C4 13.5186 10.4814 20 18.5284 20C18.8415 20 19.1859 19.7495 19.2485 19.4364L20 16.18C20 16.1174 20 16.0548 20 16.0235C20 15.7417 19.8121 15.4286 19.5616 15.3033Z" fill="#1E73AC"/>
</svg>
